<svg width="131" height="58" viewBox="0 0 131 58" fill="none" xmlns="http://www.w3.org/2000/svg">
<path d="M7.88834 41.8255L4.98908 44.8597V50.3546H0.0388184V28.643H5.00174V38.7912L14.5478 28.643H20.0931L11.1547 38.3195L20.6122 50.3546H14.7883L7.88834 41.8255Z" fill="#006DDC"/>
<path d="M42.6161 28.643V50.3546H38.514L27.7653 37.1721V50.3546H22.8403V28.643H26.9677L37.6911 41.8255V28.643H42.6161Z" fill="#006DDC"/>
<path d="M108.425 28.643L101.361 50.3546H96.0055L91.2578 35.655L86.3582 50.3546H81.0281L73.9382 28.643H79.1164L83.978 43.9036L89.0675 28.643H93.6886L98.6136 44.0311L103.64 28.643H108.425Z" fill="#006DDC"/>
<path d="M130.961 28.643V50.3546H126.859L116.11 37.1721V50.3546H111.185V28.643H115.313L126.036 41.8255V28.643H130.961Z" fill="#006DDC"/>
<path d="M22.7011 0.0597534V21.7713H20.5109V4.39441L12.041 19.0048H10.9648L2.49496 4.49641V21.7713H0.304688V0.0597534H2.17844L11.5472 16.1617L20.8147 0.0597534H22.7011Z" fill="#006DDC"/>
<path d="M43.2617 15.9705H31.2469L28.6641 21.7713H26.2966L36.1592 0.0597534H38.4127L48.2753 21.7713H45.8698L43.2617 15.9705ZM42.4261 14.1092L37.248 2.44382L32.0698 14.1092H42.4261Z" fill="#006DDC"/>
<path d="M58.5051 11.5594L54.0992 16.0598V21.7713H51.8203V0.0597534H54.0992V13.1785L66.7597 0.0597534H69.3804L60.0496 9.88924L70.0261 21.7713H67.3168L58.5051 11.5594Z" fill="#006DDC"/>
<path d="M88.9788 19.7825V21.7713H73.7229V0.0597534H88.5104V2.03585H76.0018V9.76175H87.1557V11.7251H76.0018V19.7952H88.9788V19.7825Z" fill="#006DDC"/>
<path d="M64.81 39.0207C62.3412 39.0207 60.3409 37.0064 60.3409 34.5203C60.3409 33.1179 60.9866 31.8048 62.088 30.9506C61.3664 30.7594 60.6321 30.6701 59.8851 30.6701C54.9981 30.6574 51.0354 34.6478 51.0227 39.5689C51.0101 44.4901 54.9728 48.4805 59.8598 48.4932C64.7467 48.506 68.7095 44.5156 68.7221 39.5944C68.7221 39.5817 68.7221 39.5817 68.7221 39.5689C68.7221 38.7658 68.6082 37.9753 68.4056 37.1976C67.5574 38.345 66.228 39.0207 64.81 39.0207Z" fill="#F79237"/>
<path d="M71.8239 57.9403C73.6489 57.9403 75.1283 56.4505 75.1283 54.6128C75.1283 52.775 73.6489 51.2853 71.8239 51.2853C69.999 51.2853 68.5195 52.775 68.5195 54.6128C68.5195 56.4505 69.999 57.9403 71.8239 57.9403Z" fill="#006DDC"/>
<path d="M59.8852 53.2868C52.3649 53.2868 46.2751 47.1546 46.2751 39.5816C46.2751 32.0087 52.3649 25.8765 59.8725 25.8765C67.3929 25.8765 73.4826 32.0087 73.4826 39.5816C73.4826 43.2151 72.052 46.7083 69.4945 49.2709C66.9624 51.8462 63.4934 53.2996 59.8852 53.2868ZM59.8852 27.4573C53.2384 27.4446 47.8451 32.8757 47.8324 39.5689C47.8197 46.2621 53.2131 51.6932 59.8599 51.7059C66.5066 51.7187 71.9 46.2876 71.9127 39.5944C71.9127 39.5816 71.9127 39.5816 71.9127 39.5689C71.9 32.8884 66.5193 27.4701 59.8852 27.4573Z" fill="#006DDC"/>
</svg>
